<svg id="Group_48" data-name="Group 48" xmlns="http://www.w3.org/2000/svg" width="155.237" height="104.716" viewBox="0 0 155.237 104.716">
  <g id="Group_36" data-name="Group 36" transform="translate(31.371)">
    <path id="Path_8" data-name="Path 8" d="M1015.538-732.676l.186-1.676-1.631,1.254-25.239-13.293L963.591-733.1l-5.32-3.873,4.835-28.157-20.454-19.94,2.037-6.267,28.271-4.077L985.6-821h6.59l12.644,25.587,28.27,4.092,2.036,6.259-20.457,19.937,4.642,28.154-3.791,2.616ZM987.19-753.945h3.419l20.406,10.8-3.9-22.685,1.057-3.234,16.509-16.083-22.814-3.31-2.767-2.007-10.2-20.674L978.7-790.46l-2.767,2.01-22.814,3.315,16.509,16.093,1.056,3.252-3.9,22.648Z" transform="translate(-942.652 821)" fill="#f6c363"/>
  </g>
  <g id="Group_37" data-name="Group 37" transform="translate(67.689 36.743)">
    <path id="Path_9" data-name="Path 9" d="M992.205-766.213l-5.542,2.914,1.058-6.171-4.484-4.371,6.2-.9,2.772-5.615,2.771,5.615,6.2.9-4.484,4.371,1.058,6.171Z" transform="translate(-982.275 780.948)" fill="#f6c363"/>
    <path id="Path_10" data-name="Path 10" d="M997.631-761.974l.022-.636-.645.478-4.9-2.577-4.9,2.577-2-1.452.938-5.457-3.965-3.865.763-2.351,5.479-.786L990.884-781h2.471l2.451,4.957,5.479.791.764,2.349-3.966,3.864.912,5.455-1.364.974Zm-6.153-5.248h1.282l3.071,1.483-.587-3.485.4-1.252,2.485-2.439-3.434-.507-1.037-.759-1.536-3.113-1.537,3.11-1.037.753-3.433.5,2.485,2.422.4,1.22-.587,3.55Z" transform="translate(-982.19 781)" fill="#f6c363"/>
  </g>
  <g id="Group_38" data-name="Group 38" transform="translate(0 29.853)">
    <path id="Path_11" data-name="Path 11" d="M908.5-753.135,942.028-788.5l3.445,9.186Z" transform="translate(-908.5 788.5)" fill="#f6c363"/>
  </g>
  <g id="Group_39" data-name="Group 39" transform="translate(10.104 39.039)">
    <path id="Path_12" data-name="Path 12" d="M919.5-743.135,953.028-778.5l2.067,10.1Z" transform="translate(-919.5 778.5)" fill="#f6c363"/>
  </g>
  <g id="Group_40" data-name="Group 40" transform="translate(18.371 49.143)">
    <path id="Path_13" data-name="Path 13" d="M928.5-732.135,962.028-767.5v11.482Z" transform="translate(-928.5 767.5)" fill="#f6c363"/>
  </g>
  <g id="Group_41" data-name="Group 41" transform="translate(26.638 61.175)">
    <path id="Path_14" data-name="Path 14" d="M937.5-721.883,968.329-754.4l-1.3,11.486Z" transform="translate(-937.5 754.402)" fill="#f6c363"/>
  </g>
  <g id="Group_42" data-name="Group 42" transform="translate(33.987 74.404)">
    <path id="Path_15" data-name="Path 15" d="M945.5-709.687,974.237-740l9.842,3.03Z" transform="translate(-945.5 740)" fill="#f6c363"/>
  </g>
  <g id="Group_43" data-name="Group 43" transform="translate(118.265 29.853)">
    <path id="Path_16" data-name="Path 16" d="M1074.222-753.135,1040.695-788.5l-3.445,9.186Z" transform="translate(-1037.25 788.5)" fill="#f6c363"/>
  </g>
  <g id="Group_44" data-name="Group 44" transform="translate(109.539 39.039)">
    <path id="Path_17" data-name="Path 17" d="M1063.344-743.135,1029.817-778.5l-2.067,10.1Z" transform="translate(-1027.75 778.5)" fill="#f6c363"/>
  </g>
  <g id="Group_45" data-name="Group 45" transform="translate(103.338 49.143)">
    <path id="Path_18" data-name="Path 18" d="M1054.528-732.135,1021-767.5v11.482Z" transform="translate(-1021 767.5)" fill="#f6c363"/>
  </g>
  <g id="Group_46" data-name="Group 46" transform="translate(97.77 61.175)">
    <path id="Path_19" data-name="Path 19" d="M1045.767-721.883,1014.938-754.4l1.3,11.486Z" transform="translate(-1014.938 754.402)" fill="#f6c363"/>
  </g>
  <g id="Group_47" data-name="Group 47" transform="translate(82.671 74.404)">
    <path id="Path_20" data-name="Path 20" d="M1037.08-709.687,1008.342-740l-9.842,3.03Z" transform="translate(-998.5 740)" fill="#f6c363"/>
  </g>
</svg>
